<svg width="100" height="119" viewBox="0 0 100 119" fill="none" xmlns="http://www.w3.org/2000/svg">
<path fill-rule="evenodd" clip-rule="evenodd" d="M49.3936 41.2113C46.3456 38.5631 42.7997 36.5309 39.0357 35.2028C39.2817 32.2296 39.0797 28.5663 37.6197 24.9011C37.2477 23.9702 36.2477 23.4566 35.2777 23.7014C35.2777 23.7014 32.5717 24.3654 29.3098 26.3576C29.2678 26.2653 29.2238 26.173 29.1818 26.0807C28.0878 23.7876 26.5138 21.8437 24.3798 20.7744C23.6098 20.3872 22.6798 20.5396 22.0698 21.1495C22.0698 21.1495 14.5139 28.759 12.6799 38.3946C5.34995 43.699 0 53.455 0 68.7501C0 97.298 18.2939 108.96 20.7338 110.388C24.2038 113.749 30.3297 116.098 37.4037 117.241C47.8496 118.933 60.3455 118.078 68.7414 114.708C89.5873 106.346 99.9992 86.0895 99.9992 68.8724C99.9992 54.3898 96.9932 49.9702 94.1292 37.0484C88.7093 12.5771 98.9932 6.25364 98.9932 6.25364C99.6672 5.86645 100.057 5.12216 99.9932 4.34778C99.9292 3.57139 99.4232 2.90132 98.6952 2.63049C98.6952 2.63049 91.0853 -0.210246 81.7533 0.0124401C72.2454 0.239138 61.0055 3.60952 53.9975 16.0578C50.2316 22.7464 49.2076 31.5856 49.3936 41.2113ZM56.4355 83.7944C56.4115 87.4798 56.1575 90.9384 55.5555 94.072C54.5816 99.1376 52.6996 103.385 49.5576 106.488C45.9136 110.087 40.4937 112.22 32.5297 112.081C34.2577 112.571 36.1117 112.97 38.0397 113.281C47.7756 114.856 59.4295 114.124 67.2574 110.984C86.4113 103.296 95.9992 84.6952 95.9992 68.8724C95.9992 54.779 93.0113 50.4919 90.2253 37.9192C86.0053 18.8685 90.6253 9.49361 94.0372 5.4311C91.2052 4.72493 86.7913 3.90643 81.8473 4.02479C73.5134 4.22341 63.6235 7.11832 57.4795 18.0299C53.5056 25.0917 53.0036 34.7614 53.5336 45.1273C62.3835 53.1199 67.4474 52.9635 67.4474 52.9635V52.9675C67.7554 52.8772 68.0895 52.8611 68.4235 52.9333C69.3874 53.144 70.0374 54.0207 69.9974 54.9777C70.0294 55.8524 69.9334 58.6851 67.7515 61.9792C65.8935 64.7838 62.4175 68.0539 55.7936 70.5195C56.1775 74.9833 56.4435 79.3146 56.4375 83.3791C56.4435 83.4413 56.4455 83.5035 56.4475 83.5657C56.4475 83.6439 56.4435 83.7202 56.4355 83.7944ZM42.6257 74.4476C24.2858 81.1924 17.6458 94.4331 23.3258 107.006C35.1297 109.317 42.4197 107.909 46.7516 103.629C49.3516 101.062 50.8216 97.5046 51.6276 93.3137C52.0936 90.8883 52.3356 88.2561 52.4156 85.4735C49.9256 85.1726 48.0196 84.2959 46.5736 83.1404C43.6996 80.8393 42.6577 77.3385 42.6257 74.4476ZM52.0936 67.5343C47.0616 68.1362 40.5897 67.8794 32.2737 66.0939C20.6598 63.5962 11.0319 71.5748 10.2679 82.5586C9.85592 88.4969 12.0019 95.2356 17.5939 101.748C15.5759 88.7035 24.3638 75.7918 44.4036 69.6128C44.4916 69.5787 44.5816 69.5525 44.6736 69.5305C46.0996 69.0971 47.5796 68.6979 49.1156 68.3368C50.1736 68.086 51.1656 67.8172 52.0936 67.5343ZM26.3418 29.762C26.1258 29.096 25.8718 28.438 25.5718 27.81C25.1018 26.827 24.5298 25.9102 23.7878 25.21C21.7418 27.6014 17.4939 33.2367 16.4879 39.8631C16.4019 40.4188 16.0899 40.9124 15.6239 41.2273C8.78992 45.8295 3.99997 54.7269 3.99997 68.7501C3.99997 74.7144 4.86395 79.8783 6.22193 84.31C6.21193 83.6259 6.23196 82.9478 6.27796 82.2797C7.20996 68.8785 18.9418 59.1244 33.1117 62.1698C54.8836 66.8502 62.4575 60.4285 64.9315 56.7431C61.9555 56.0931 57.1575 53.9665 50.4476 47.7474C50.2876 47.6351 50.1416 47.5006 50.0196 47.3482C49.4136 46.7764 48.7936 46.1746 48.1596 45.5386C44.9356 42.3027 40.9117 39.9434 36.6117 38.6213C36.5957 38.6193 36.5777 38.6173 36.5597 38.6153C36.3557 38.5832 36.1637 38.523 35.9857 38.4367C33.8357 37.8309 31.6237 37.4818 29.4138 37.4136C28.4078 37.3815 27.5818 36.6051 27.4858 35.6C27.3478 34.1636 27.0778 32.2377 26.5198 30.3338C26.4298 30.1492 26.3718 29.9566 26.3418 29.762ZM51.8856 71.7714C51.2856 71.9339 50.6696 72.0904 50.0316 72.2408C48.8776 72.5137 47.7596 72.8086 46.6736 73.1236C46.2636 74.9953 46.7296 78.131 49.0696 80.0027C49.9256 80.6888 51.0316 81.1864 52.4296 81.4211C52.3696 78.3296 52.1616 75.0916 51.8856 71.7714ZM35.1017 34.0893C35.1897 32.3079 35.0677 30.2816 34.5077 28.2012C33.4837 28.6205 32.1057 29.2826 30.6357 30.2656C30.9157 31.3931 31.1177 32.4984 31.2617 33.5055C32.5497 33.6199 33.8317 33.8145 35.1017 34.0893Z" fill="black"/>
</svg>
